<?xml version="1.0" encoding="utf-8"?>
<!-- Generator: Adobe Illustrator 24.2.3, SVG Export Plug-In . SVG Version: 6.00 Build 0)  -->
<svg version="1.1" id="Layer_1" xmlns="http://www.w3.org/2000/svg" xmlns:xlink="http://www.w3.org/1999/xlink" x="0px" y="0px"
	 viewBox="0 0 1228 314" style="enable-background:new 0 0 1228 314;" xml:space="preserve">
<style type="text/css">
	.st0{fill:#7DC62C;}
	.st1{fill:#4840FF;}
	.st2{fill:#FD2323;}
	.st3{fill:#FFF706;}
	.st4{fill:#0D0C17;}
	.st5{fill:#4AC7EE;}
	.st6{fill:#ED1E2D;stroke:#000000;stroke-width:0.1;stroke-miterlimit:1;}
	.st7{fill:#70BF44;}
</style>
<path class="st0" d="M140.4,4.4c-8.7,2.8-11,8.1-8.3,19.3c4.9,20.1,12.2,39.6,25,66.9c4.2,9,5,9.8,8.5,8.9
	c2.7-0.6,17.7-7.9,19.8-9.6c2.1-1.8,0.9-13.2-2.7-25.5c-2-6.8-8.7-21.2-14-29.8c-7.4-12.2-21.8-31.5-23.3-31.4
	C144.7,3.2,142.4,3.8,140.4,4.4z"/>
<path class="st1" d="M296.4,19.3c-7.1,9.8-12.8,17.9-12.8,18.3c0,0.2-3.1,6-6.8,12.7c-7.8,14.2-17.2,33.4-17.2,35.3
	c0,0.2-1.1,2.9-2.5,5.9c-1.4,3-2.5,6.1-2.5,7c0,1.9,3.6,4.7,9.1,7c2.4,1,5.1,2.2,5.9,2.6c0.9,0.4,3.4,1.1,5.7,1.5
	c4.1,0.6,4.3,0.5,9.3-4.7c7.3-7.7,14.3-18.9,18.5-29.8c2-5.2,4.1-10.4,4.5-11.5c1.5-3.4,7.6-29.1,8.7-36.3c1.1-6.8-2.7-10-12.4-10.8
	C299,16.1,298.6,16.2,296.4,19.3z"/>
<path class="st2" d="M33.4,94c-4.1,4.4-6,7.5-5.1,8.4c0.3,0.4,0.1,1.3-0.6,2c-0.9,1.2,1,3.5,10.1,12c26.1,24.5,46.1,36.2,67,39.1
	l4.7,0.7l3.5-4.8c5-6.8,10-16.7,9.4-18.4c-0.5-1.2-12.3-9-20.3-13.5c-1.1-0.6-4.2-2.4-7-4.1c-9-5.3-28.8-14.8-40-19.2
	c-6-2.3-12-4.7-13.3-5.2C38.2,89.6,37.3,89.9,33.4,94z"/>
<path class="st3" d="M211.7,120.9c0,2.8-4.5,3.1-6,0.5c-0.9-1.1-2.6-0.7-5,1.3c-1.9,1.8-7.1,4.3-11.4,5.4c-4.3,1.3-8.1,2.8-8.6,3.3
	s-3.6,2.3-7.1,3.8c-7.3,3.1-18.1,13-19.7,17.6c-0.7,1.8-2.1,3.3-3.3,3.3c-3.6,0-8.5,6.3-8.3,11c0,2.5-1,5.8-2.3,7.1
	c-1.2,1.3-2.8,5.1-3.4,8.2s-1.7,6.4-2.3,7.4c-1.7,2.5-1.7,23.9-0.2,23.9c0.9,0,1,3.6,0.5,8.1c-0.5,5.8,0,8.6,1.9,10.1
	c1.7,1.3,2.6,4.9,2.6,10.9c0,13.3,3.1,12.2,4-1.3c1.2-18,2.6-25.1,4.5-25.7c1-0.3,1.9-1.5,1.9-2.6c0-1.1,1.4-3.5,3.1-5.3
	c1.6-1.7,4-5.1,5.2-7.4c3.8-6.8,20.5-24.1,31.4-32c5.5-4.1,10.5-7.4,10.9-7.4c0.3,0,3.6-2.5,7.1-5.4c3.4-3.1,8.5-6.6,11.1-7.8
	c7.1-3.1,9.5-4.3,13.3-6.3c1.9-1,7.4-3.5,12.1-5.4c4.8-2,10-4.1,11.6-4.9c1.7-0.8,8.5-1.5,15-1.5c6.7,0,12.6-0.8,13.1-1.7
	c0.7-1-2.9-1.6-9.5-1.6c-6.4,0-13.1-1.2-16.6-2.6c-3.3-1.5-6.4-2.3-7.1-1.8c-0.5,0.7-2.4,0.3-4.3-0.7s-10.4-2-18.8-2.3
	C215,118.8,211.7,119.3,211.7,120.9z"/>
<path class="st4" d="M279.6,211.4c0,0.2,4.1,3.6,9,7.6l9,7.3L310,229c7.1,1.6,12.2,2.3,11.9,1.7c-0.2-0.6-2.7-2.9-5.5-5.1
	c-2.9-2.2-7-5.5-9.3-7.2c-3.2-2.6-6.2-3.7-13.9-5.3C284.1,211.2,279.6,210.7,279.6,211.4z"/>
<path class="st5" d="M89.1,217.4c-8,1.1-17.9,2.7-23.5,3.8c-2.5,0.5-7,1.4-10,2c-3,0.6-9.1,2-13.5,3.2c-4.4,1.1-9.2,2.3-10.8,2.6
	c-1.5,0.3-3,0.9-3.3,1.4c-0.3,0.5-1.3,0.9-2.2,0.9c-3.5,0-18.2,6.3-18.7,8C6,242.8,6.4,249.8,8,253.4c1.5,3.5,1.7,3.6,8.3,4.2
	c10.7,1.1,41.3,0.8,47.9-0.3c15.3-2.7,24.6-5.5,32.4-9.8s7.9-4.5,7.4-12.5c-0.6-7.9-2.2-15.5-3.7-17.5
	C99.3,216.2,98.1,216.2,89.1,217.4z"/>
<path class="st4" d="M227.8,218.2c-9.1,1.9-9.6,2.2-18.8,9.5c-9.7,7.9-11.4,10.2-6.6,8.9c1.5-0.4,7-1.7,12.3-2.9c9-2.1,10-2.6,18-9
	c4.6-3.8,8.6-7.2,8.7-7.7C241.9,215.7,238.4,216,227.8,218.2z"/>
<g>
	<path class="st6" d="M854.1,193.1c-0.3,0.5-1.4,1-2.3,1c-2.8,0.1-10.9,6.6-15.6,12.6c-5.1,6.6-13.4,22.1-16.5,31.1
		c-8.5,24.4-6.1,41.8,6.7,48.9c3.4,1.9,5.7,2.4,11.5,2.4c3.9,0,8.8-0.6,10.7-1.3c11.7-4.1,22.2-16.2,26.6-30.6
		c1.7-5.5,1.9-23.3,0.3-26.4c-2.1-4-5.2-6.7-7.8-6.7c-2.5,0-2.5-0.1,1-3c4.3-3.4,7.9-10.6,7.9-15.3c0-4.4-3.6-9.7-8-11.9
		C864.8,192,855.1,191.5,854.1,193.1z M855.6,228.1c0,0.5-0.4,1-0.9,1c-0.8,0-5.3,8.6-8,15.6c-0.7,1.7-1.1,5.7-0.9,9
		c0.3,5.4,0.6,6,3.2,7.3c2.5,1.2,2.8,1.7,2.3,4.8c-0.8,4.6-3.4,8.5-5.5,8.1c-3-0.6-4.5-7.4-3.8-17.8c0.3-5.2,1-10.9,1.5-12.5
		c0.5-1.7,1.5-4.8,2.1-7c2.5-8.8,3-9.5,6.6-9.5C854.1,227.1,855.6,227.5,855.6,228.1z"/>
	<path class="st6" d="M394.7,197.5c-4.5,1.6-6,3.9-4.3,6.6c0.6,1.1,1.2,2.8,1.2,3.8s-4.9,11.5-10.8,23.3
		c-13.6,26.8-14.9,29-23.4,42.1c-5.6,8.6-6.9,11.2-6.4,13.3c0.6,2.4,0.9,2.5,8.1,2.5c4.3,0,7.5-0.4,7.5-1c0-0.6,0.9-1,2-1
		s2-0.3,2-0.8c0-0.4,1-1.2,2.2-1.7c1.2-0.6,3.9-3.3,6-6c3.8-5,17.8-32.1,17.8-34.4c0-0.7,0.6-1.1,1.3-0.9c0.6,0.3,1.5,2.7,1.9,5.4
		c1.9,13.7,5.9,26.6,10.2,32.9c3.8,5.6,6.7,7.5,11.8,7.5c4,0,5-0.4,7.4-3.2c1.5-1.8,6.7-11.5,11.5-21.5c4.9-10.1,9.4-18.3,9.9-18.3
		c0.6,0,1,3,1,6.7c0.1,12.6,3.5,22.5,10.2,29.4c4.9,5.1,9.2,6.9,16.1,6.9c6.1,0,10-1.6,13.9-5.7c4.2-4.4,4.5-7.5,1-11.4
		c-4.1-4.7-7.1-10.7-9.5-19.2c-1.7-6-2.1-11-2.5-30.7c-0.2-14-0.8-24-1.4-24.8c-1.7-2-12.9-1.5-19.3,0.9c-8.1,3-10,5.9-25.5,39.6
		c-4.8,10.4-4.9,10.2-7-6.2c-1.1-8.8-2-13.7-4.3-22.4c-1.5-5.3-6-10.5-10.6-12C408.3,195.8,399,195.9,394.7,197.5z"/>
	<path class="st6" d="M606.4,198.1c-11,5.9-21.9,29.7-28.4,62.5c-2.2,11.5-4.4,30.8-4.4,39.8c0,7.2,0.2,8,2.6,10.2
		c2.3,2.1,3.7,2.5,9.4,2.5c5.7,0,7.1-0.4,9.3-2.4c1.4-1.3,2.8-3.5,3.1-4.8c2-9.7,2.6-13.3,3.2-20.3c0.4-4.4,0.8-8.4,0.8-9
		c0.1-0.5,1.9-1.3,4.1-1.6c6.4-1.2,9.1-2.6,11.9-6.2s3.4-8.5,1.4-10.5c-0.7-0.7-3.9-1.2-7.4-1.2s-6.6-0.5-6.9-1.1
		c-0.7-1,0.7-10.4,2.7-18.7c1-3.9,1.3-4.2,4.3-4.2c4.9,0,7-4.3,9.6-19.2c2-11.9-0.6-17.8-7.8-17.8
		C611.8,196.2,608.4,197.1,606.4,198.1z M617.6,260.1c0,1.2-2.7,1.2-5.5,0c-1.6-0.7-1.3-0.9,1.8-0.9
		C615.9,259.1,617.6,259.5,617.6,260.1z"/>
	<path class="st6" d="M654.1,197.3c-5.5,1.9-9.9,7.2-13.1,15.9c-2.5,7-3.5,8.5-7.2,11.1c-6.7,4.6-9.1,11.9-5.2,15.8l2,2l-2.1,9.8
		c-4,18.2-3.7,26.2,1.5,32c3.3,3.8,7.1,5.2,13.6,5.2c7.3,0,13.4-2.6,18.5-7.8c5.1-5.3,4.9-5.9-2.8-7.6c-4.1-0.9-6-6-5.2-13.9
		c0.9-9,2.8-17.9,4-18.2c0.5-0.2,2.3-0.6,3.9-1c1.6-0.3,4.2-2,5.8-3.7c2.3-2.4,2.8-3.9,2.8-7.7c0-4.1-0.3-4.9-2.5-5.9
		c-1.4-0.7-3.3-1.2-4.2-1.2c-1,0-1.3-0.5-0.8-1.8c0.4-0.9,0.9-2.6,1.2-3.7c0.5-1.9,0.8-2.8,3.2-8.8c1.6-4,1.4-6.1-1-9.1
		C664.3,195.8,659.8,195.3,654.1,197.3z"/>
	<path class="st6" d="M1137,223.4c-11.3,3.3-25.1,13.5-32,23.8c-6.9,10.2-10.4,22.5-8.3,29c3,8.9,8.8,12.9,18.6,12.9
		c7.9,0,13.5-2.5,20.9-9.2c4.4-4.1,5.4-4.6,5.4-3c0,3.2,2.8,9,5.2,10.6c4.9,3.4,19.8,0.9,23.9-4c1.6-1.9,2.9-1.8,2.9,0.4
		c0,5.7,11.9,7.3,18.9,2.7c2.1-1.4,4.3-3.6,4.9-4.8c1.7-3.6,3.2-11.2,3.2-16.4v-4.9l3.9,0.4c3.3,0.3,4.1,0,5.8-2.5
		c6.4-9.5,8.3-26.8,3.6-33.1c-2.3-3.1-6.5-4-10-2.1c-1.8,0.9-2.9,1-4.8,0.1c-7.7-3.5-15.2,2-19.2,13.8c-3.4,10.4-6.1,22.9-6.8,31.5
		c-0.4,4.4-0.9,8.7-1.2,9.5c-1.2,3.2-3-10.4-2.5-19c0.4-7.9,0.3-8.9-1.4-10c-1.6-1-1.8-2.1-1.6-7.1c0.2-3.3,0.1-7.1-0.2-8.3
		c-0.8-3.2-6.3-8.3-10.2-9.6C1151.8,222.7,1140.9,222.3,1137,223.4z M1139.4,240.1c0.4,2.4-1.2,9-2.9,12.2c-1.7,3.3-1.1,7.9,1.1,8.5
		c1.1,0.3,1.7,1,1.4,1.5c-1.2,1.9-8.7,6.8-10.5,6.8c-2.7,0-4.1-5.4-2.8-10.4c1.6-5.9,5.5-13.8,8.4-17.2c1.4-1.6,2.5-3.3,2.5-3.7
		C1136.6,235.9,1139.1,237.9,1139.4,240.1z"/>
	<path class="st6" d="M516.5,225.4c-1.9,1.2-4.4,4.2-5.7,6.5c-6.2,11.1-11.2,31.1-11.2,44.3c0,6.9,0.2,7.9,2.6,10.3
		c5.5,5.4,14.4,2.8,28.8-8.3c3.6-2.8,6.8-5.1,7.1-5.1c0.2,0,0.8,1.9,1.1,4.2c0.5,2.9,1.8,5.2,4.6,8c3.7,3.7,4,3.8,11.1,3.8
		c5.2,0,8-0.5,10.2-1.8l3-1.9l0.2-22.9c0.2-26.4,0-27.4-6.7-27.4c-5.5,0-10.5,3.1-21.5,13.3c-5.1,4.8-9.6,8.7-9.9,8.7
		c-0.7,0,0.5-3.2,3.8-10c4.6-9.3,4.7-18,0.4-22C531.2,222.1,521.1,222.3,516.5,225.4z M529.1,226.1c-0.3,0.5-1.9,1-3.5,1
		c-1.6,0-3.2-0.5-3.5-1c-0.4-0.6,1-1,3.5-1S529.5,225.5,529.1,226.1z M564.3,238.7c0.2,0.6-0.2,1.1-0.9,1.1s-3,0.4-5,0.8
		c-4,0.8-4.6,0.3-2.5-2C557.3,236.9,563.7,237,564.3,238.7z"/>
	<path class="st6" d="M705.6,224c-10.1,3.3-21.9,13.2-25.9,21.7c-2.6,5.4-2.8,14.4-0.5,18c1.9,2.8,9.1,7.4,12,7.5
		c1.2,0,0.7,0.5-1.4,1.2c-7.4,2.7-14.2,10.5-14.2,16.4c0,8.3,5.9,12.3,18.1,12.3c12,0,19.8-2.9,28.3-10.3
		c9.1-7.8,12.6-15.4,10.6-22.8c-1.2-4.3-4.3-6.9-11-9.2c-3.2-1.2-3.8-1.6-2.1-1.7c3.3,0,8.8-4.4,12.2-9.8c5-7.9,3.3-15.9-4.4-21.6
		c-2.3-1.7-4.5-2.1-11-2.3C711.8,223.3,707,223.5,705.6,224z M718.4,225.8c-1.6,0.2-4,0.2-5.5,0c-1.6-0.2-0.3-0.4,2.7-0.4
		S719.9,225.6,718.4,225.8z M711.1,243.8c-0.4,3.8-0.7,8-0.7,9.6c0.1,2.4-0.1,2.6-1.8,1.7c-3.5-1.9-4.2-4.6-2.5-9.6
		c2.1-6.1,3.3-8.4,4.7-8.4C711.6,237.1,711.7,239.1,711.1,243.8z M703.2,277.3c1.5,4.3-1,10.8-4.1,10.8c-2,0-1.9-2.4,0.2-8.3
		C701.2,274.6,702.1,274,703.2,277.3z"/>
	<path class="st6" d="M775.1,224.9c-8.3,2.9-13.8,6.7-21.7,15.1c-10.1,10.8-14.8,20.6-14.8,31.4c0,6.5,2.4,11.2,7.6,14.7
		c3.7,2.6,5.1,3,11.3,3c3.8,0,7.3-0.4,7.6-1c0.3-0.5,1.4-1,2.4-1s4.9-2.6,8.8-5.9l7-5.8l1.1,4.1c0.6,2.3,2.3,5.4,3.8,6.9
		c2.3,2.3,3.5,2.7,8.2,2.7c5.9,0,12.6-2.5,15.6-5.9c1.5-1.7,1.5-2.3,0-8.7c-1.1-5.1-1.4-9.1-0.9-15.1c0.6-7.1,0.4-8.4-1.2-10
		c-1.5-1.5-1.7-3.1-1.5-8.9c0.4-7.1,0.3-7.2-3.5-11.2c-2.3-2.4-5.4-4.4-7.8-5.1C791.2,222.6,780.8,222.9,775.1,224.9z M793.6,226.1
		c0,0.7-1.9,0.8-5.2,0.4c-7.1-0.9-7.3-1.4-0.5-1.4C791.2,225.1,793.6,225.5,793.6,226.1z M781.4,240.9c0.2,1.8-0.6,5.8-1.7,9
		c-2.7,7.4-2.7,10.2-0.1,10.9c1.1,0.3,2,0.8,2,1.2c0,0.3-2.3,2.3-5.1,4.3c-5.7,4.2-8.1,4-9.3-0.7c-1.2-4.8,4.1-18.9,9.7-25.7
		C779.6,236.5,781,236.8,781.4,240.9z"/>
	<path class="st6" d="M918.1,224.5c-10.9,3.5-22.4,12.8-30,24.6c-5.3,8.1-7.5,14.5-7.5,21.6c0,7.2,2.2,11.8,7.6,15.4
		c3.6,2.6,5.2,3,10.7,3c8.2,0,12.1-1.7,20.2-8.5c5.8-5,6.5-5.3,6.5-3.3c0,2.6,3.4,8.6,5.9,10.5c4.2,3.2,18,0.4,22.5-4.6
		c1.6-1.8,1.6-2.2,0-7.7c-1.3-4.5-1.5-7.7-0.9-15.5c0.6-8.9,0.5-9.9-1.2-10.9c-1.6-1-1.8-2.2-1.5-8.4c0.4-6.7,0.2-7.4-2.4-10.5
		c-4.2-5-9.5-7.1-18.4-7C925.5,223.2,920.3,223.8,918.1,224.5z M923.4,240.9c0.2,1.8-0.6,5.8-1.7,9c-2.7,7.4-2.7,10.2-0.1,10.9
		c2.5,0.7,1.9,1.7-3.2,5.4c-5.1,3.6-7.5,3.7-8.9,0.2c-1.3-3.6,0.4-10.9,4.5-18.4C920,236.9,922.8,234.8,923.4,240.9z"/>
	<path class="st6" d="M971.1,224.2c-3.7,2.2-6.7,5.4-8.1,8.8c-3.3,7.8-0.9,10.1,10.4,10.1c4.4,0,8.4-0.5,8.7-1c0.3-0.6,1.7-1,3.1-1
		h2.5l-2.3,3.2c-3.4,4.9-8,10.6-21.5,26.6c-6.3,7.5-7,11.3-2.5,15.3c5.4,4.9,13.3,6.9,27.1,6.9c9.9,0,14.1-1.3,19.6-6.1
		c4.8-4.2,6.7-8.6,6.3-14.5l-0.3-4.9l-4,0.1c-2.2,0.1-6,0.7-8.4,1.3c-8.8,2.3-8.9,1.7-0.6-10.7c4.2-6.2,8.5-12.8,9.5-14.7
		c1.1-1.9,2.9-5.1,4-7c2.5-4.4,2.6-8.7,0.2-10.8C1012.5,223.7,974.3,222.3,971.1,224.2z M1011.4,270.3c-0.3,0.8-2.3,1.4-4.9,1.4
		c-2.4,0.1-3.4,0-2.1-0.3c1.2-0.2,2.2-0.9,2.2-1.4s1.2-0.9,2.6-0.9C1010.8,269.1,1011.6,269.6,1011.4,270.3z"/>
	<path class="st6" d="M1055.6,224.7c-13,4-27.9,18.1-34.2,32.1c-1.6,3.6-2.1,6.9-2.2,13.4c-0.1,7.8,0.1,8.8,2.6,12.1
		c3.8,5,7.9,6.8,15.5,6.8c7.9,0,13.5-2.5,20.9-9.2c4.4-4.1,5.4-4.6,5.4-3c0,3.2,2.8,9,5.2,10.6c1.4,1,4.4,1.6,8.3,1.6
		c5,0,6.9-0.5,10.7-2.9c2.5-1.6,4.8-3.4,5.2-3.9c0.3-0.6-0.1-4.1-1-7.9c-1.2-5-1.4-9.1-0.9-15.5c0.6-7.8,0.5-8.8-1.2-9.8
		c-1.6-1-1.8-2.2-1.5-8.4c0.4-7,0.3-7.5-2.7-10.8c-4.6-5.3-8.6-6.8-17.8-6.7C1063.6,223.2,1058.1,223.9,1055.6,224.7z M1061.4,240.6
		c0.4,3-1.5,10.2-3,11.9c-0.4,0.6-0.8,2.5-0.8,4.4c0,2.5,0.5,3.5,2,3.9c1.1,0.3,1.7,1,1.4,1.5c-1.2,1.8-8.7,6.8-10.4,6.8
		c-2.9,0-4.3-5-3-10.1c2.2-8.6,10.1-22.3,12.5-21.6C1060.7,237.6,1061.3,239.1,1061.4,240.6z"/>
</g>
<path class="st1" d="M287.6,229.7c-1.4,0.9-4,3.4-5.7,5.6c-5.3,6.5-4.4,15.6,2.1,21.7c2.8,2.7,2.6,4.1-0.8,4.1
	c-4.9,0-12.6,3.2-16.3,6.7c-4.6,4.3-3.3,5.3,3.3,2.4c7.9-3.5,13.1-2.6,15.9,2.9c2,3.8,1.9,6.3-0.4,10.9
	c-2.1,3.9-13.4,15.1-15.4,15.1c-0.8,0-0.8,0.3,0,1.1c2,2,8.8-0.8,13.8-5.6c4.9-4.8,11.2-8.5,14.4-8.5c3.6,0,8.1,5,8.9,10
	c0.5,3,1.3,4.5,2.2,4.5c1.2,0,1.5-1.6,1.5-7.5c0-4.1-0.4-9.3-0.9-11.4c-0.9-3.8-0.8-3.9,1.5-3.1c1.3,0.4,4.1,0.9,6.2,1.2
	c4.8,0.7,5.3-2.1,0.5-3.1c-2.1-0.4-5.6-3.1-10.7-8.2c-7.3-7.2-7.5-7.6-5.6-9c5-3.6,7.3-6.7,8.4-10.9c1.3-5.1,0.7-8.5-2.1-13.3
	C304.6,229,293.5,226,287.6,229.7z"/>
<path class="st7" d="M220.6,234.2c-6.1,2.5-10,8.5-10,15.5c0,5.8,3.1,11.6,7.5,14l3.3,1.8l-5.5,6.2c-4.9,5.5-10.2,9.2-15.6,10.8
	c-1,0.3-1.5,1-1.2,1.6c0.8,1.2,8.5,1.3,10.5,0.1c2.4-1.6,2.9-0.3,1.4,4.6c-0.8,2.5-1.4,7.5-1.4,11c0,5.5,0.2,6.3,1.9,6.3
	c1.4,0,2.2-1.2,3.1-4.7c1.5-6.3,4.4-9.3,8.7-9.3c4.4,0,6.4,1.1,14.1,7.6c5.8,4.9,11.1,7.3,14.2,6.2c0.7-0.2-1.6-2.5-5-5.1
	c-11.5-9-15.1-18.7-9.1-24.8c3.5-3.5,6.8-3.7,13-0.9c7.7,3.5,9.4,2.2,3.6-2.9c-3.2-2.8-11.6-6.1-15.6-6.1c-3,0-3.2-2-0.4-4.2
	c5.1-4,7-12.9,4.1-18.6c-1.6-3.1-6.1-7.4-9.3-9.1C230.3,232.9,224,232.9,220.6,234.2z"/>
<path class="st1" d="M324.2,243.4c-0.8,6.1-0.3,7.8,1.5,6c0.7-0.7,0.8-2.8,0.2-6.4l-0.9-5.4L324.2,243.4z"/>
<path class="st7" d="M195.8,246.2c-1.3,7.4-1,8.9,1.3,8.9c1.2,0,1.4-1.4,0.8-7.8c-0.3-4.2-0.7-7.8-0.7-7.9
	C197.1,239.3,196.5,242.3,195.8,246.2z"/>
</svg>
